<mxfile host="app.diagrams.net" modified="2021-12-26T15:29:42.976Z" agent="5.0 (Windows NT 10.0; Win64; x64) AppleWebKit/537.36 (KHTML, like Gecko) Chrome/96.0.4664.110 Safari/537.36" etag="aE0QIkXgcPdspgu5HdYx" version="16.1.0" type="github">
  <diagram id="D8LQqbCJJOjj9_ByCHpz" name="Page-1">
    <mxGraphModel dx="1328" dy="653" grid="1" gridSize="10" guides="1" tooltips="1" connect="1" arrows="1" fold="1" page="1" pageScale="1" pageWidth="1169" pageHeight="827" math="0" shadow="0">
      <root>
        <mxCell id="0" />
        <mxCell id="1" parent="0" />
        <mxCell id="2Lrg2BdqHgTAn2UWJalT-1" value="rasoberry Pi Zero" style="rounded=0;whiteSpace=wrap;html=1;" parent="1" vertex="1">
          <mxGeometry x="500" y="40" width="120" height="682" as="geometry" />
        </mxCell>
        <mxCell id="2Lrg2BdqHgTAn2UWJalT-3" value="One Wire" style="whiteSpace=wrap;html=1;aspect=fixed;" parent="1" vertex="1">
          <mxGeometry x="532" y="208" width="56" height="56" as="geometry" />
        </mxCell>
        <mxCell id="lre7vDux9qQ93J3pBF7F-37" style="edgeStyle=orthogonalEdgeStyle;rounded=0;orthogonalLoop=1;jettySize=auto;html=1;entryX=0;entryY=0.5;entryDx=0;entryDy=0;startArrow=none;startFill=0;" edge="1" parent="1" source="2Lrg2BdqHgTAn2UWJalT-5" target="lre7vDux9qQ93J3pBF7F-20">
          <mxGeometry relative="1" as="geometry" />
        </mxCell>
        <mxCell id="2Lrg2BdqHgTAn2UWJalT-5" value="Temp Sen indoor" style="rounded=0;whiteSpace=wrap;html=1;" parent="1" vertex="1">
          <mxGeometry x="230" y="208" width="90" height="26" as="geometry" />
        </mxCell>
        <mxCell id="lre7vDux9qQ93J3pBF7F-40" style="edgeStyle=orthogonalEdgeStyle;rounded=0;orthogonalLoop=1;jettySize=auto;html=1;entryX=0;entryY=0.5;entryDx=0;entryDy=0;startArrow=none;startFill=0;" edge="1" parent="1" source="2Lrg2BdqHgTAn2UWJalT-7" target="lre7vDux9qQ93J3pBF7F-20">
          <mxGeometry relative="1" as="geometry" />
        </mxCell>
        <mxCell id="2Lrg2BdqHgTAn2UWJalT-7" value="Temp Sen outdoor" style="rounded=0;whiteSpace=wrap;html=1;" parent="1" vertex="1">
          <mxGeometry x="230" y="247" width="90" height="26" as="geometry" />
        </mxCell>
        <mxCell id="lre7vDux9qQ93J3pBF7F-39" style="edgeStyle=orthogonalEdgeStyle;rounded=0;orthogonalLoop=1;jettySize=auto;html=1;entryX=0;entryY=0.5;entryDx=0;entryDy=0;startArrow=none;startFill=0;" edge="1" parent="1" source="2Lrg2BdqHgTAn2UWJalT-8" target="lre7vDux9qQ93J3pBF7F-20">
          <mxGeometry relative="1" as="geometry" />
        </mxCell>
        <mxCell id="2Lrg2BdqHgTAn2UWJalT-8" value="Temp Sen fridge" style="rounded=0;whiteSpace=wrap;html=1;" parent="1" vertex="1">
          <mxGeometry x="230" y="287" width="90" height="26" as="geometry" />
        </mxCell>
        <mxCell id="2Lrg2BdqHgTAn2UWJalT-22" style="edgeStyle=orthogonalEdgeStyle;rounded=0;orthogonalLoop=1;jettySize=auto;html=1;entryX=0;entryY=0.5;entryDx=0;entryDy=0;" parent="1" source="2Lrg2BdqHgTAn2UWJalT-12" target="2Lrg2BdqHgTAn2UWJalT-21" edge="1">
          <mxGeometry relative="1" as="geometry" />
        </mxCell>
        <mxCell id="2Lrg2BdqHgTAn2UWJalT-12" value="Water counter" style="rounded=0;whiteSpace=wrap;html=1;" parent="1" vertex="1">
          <mxGeometry x="230" y="350.5" width="90" height="26" as="geometry" />
        </mxCell>
        <mxCell id="2Lrg2BdqHgTAn2UWJalT-34" style="edgeStyle=orthogonalEdgeStyle;rounded=0;orthogonalLoop=1;jettySize=auto;html=1;entryX=0;entryY=0.5;entryDx=0;entryDy=0;" parent="1" source="2Lrg2BdqHgTAn2UWJalT-13" target="2Lrg2BdqHgTAn2UWJalT-33" edge="1">
          <mxGeometry relative="1" as="geometry" />
        </mxCell>
        <mxCell id="2Lrg2BdqHgTAn2UWJalT-13" value="Pump Switch" style="rounded=0;whiteSpace=wrap;html=1;" parent="1" vertex="1">
          <mxGeometry x="230" y="495.5" width="90" height="26" as="geometry" />
        </mxCell>
        <mxCell id="2Lrg2BdqHgTAn2UWJalT-32" style="edgeStyle=orthogonalEdgeStyle;rounded=0;orthogonalLoop=1;jettySize=auto;html=1;" parent="1" source="2Lrg2BdqHgTAn2UWJalT-14" target="2Lrg2BdqHgTAn2UWJalT-31" edge="1">
          <mxGeometry relative="1" as="geometry" />
        </mxCell>
        <mxCell id="2Lrg2BdqHgTAn2UWJalT-14" value="Inverter Switch" style="rounded=0;whiteSpace=wrap;html=1;" parent="1" vertex="1">
          <mxGeometry x="230" y="420.5" width="90" height="26" as="geometry" />
        </mxCell>
        <mxCell id="lre7vDux9qQ93J3pBF7F-45" style="edgeStyle=orthogonalEdgeStyle;rounded=0;orthogonalLoop=1;jettySize=auto;html=1;entryX=0;entryY=0.5;entryDx=0;entryDy=0;startArrow=none;startFill=0;" edge="1" parent="1" source="2Lrg2BdqHgTAn2UWJalT-15" target="lre7vDux9qQ93J3pBF7F-44">
          <mxGeometry relative="1" as="geometry" />
        </mxCell>
        <mxCell id="2Lrg2BdqHgTAn2UWJalT-15" value="Relay 230VAC" style="rounded=0;whiteSpace=wrap;html=1;" parent="1" vertex="1">
          <mxGeometry x="830" y="350" width="90" height="26" as="geometry" />
        </mxCell>
        <mxCell id="lre7vDux9qQ93J3pBF7F-53" style="edgeStyle=orthogonalEdgeStyle;rounded=0;orthogonalLoop=1;jettySize=auto;html=1;entryX=0;entryY=0.5;entryDx=0;entryDy=0;startArrow=none;startFill=0;" edge="1" parent="1" source="2Lrg2BdqHgTAn2UWJalT-17" target="lre7vDux9qQ93J3pBF7F-52">
          <mxGeometry relative="1" as="geometry" />
        </mxCell>
        <mxCell id="2Lrg2BdqHgTAn2UWJalT-17" value="Relay 230VAC" style="rounded=0;whiteSpace=wrap;html=1;" parent="1" vertex="1">
          <mxGeometry x="830" y="420" width="90" height="26" as="geometry" />
        </mxCell>
        <mxCell id="lre7vDux9qQ93J3pBF7F-47" style="edgeStyle=orthogonalEdgeStyle;rounded=0;orthogonalLoop=1;jettySize=auto;html=1;startArrow=none;startFill=0;" edge="1" parent="1" source="2Lrg2BdqHgTAn2UWJalT-18" target="lre7vDux9qQ93J3pBF7F-46">
          <mxGeometry relative="1" as="geometry" />
        </mxCell>
        <mxCell id="2Lrg2BdqHgTAn2UWJalT-18" value="Relay 30A" style="rounded=0;whiteSpace=wrap;html=1;" parent="1" vertex="1">
          <mxGeometry x="830" y="573.5" width="90" height="26" as="geometry" />
        </mxCell>
        <mxCell id="lre7vDux9qQ93J3pBF7F-49" style="edgeStyle=orthogonalEdgeStyle;rounded=0;orthogonalLoop=1;jettySize=auto;html=1;entryX=0;entryY=0.5;entryDx=0;entryDy=0;startArrow=none;startFill=0;" edge="1" parent="1" source="2Lrg2BdqHgTAn2UWJalT-19" target="lre7vDux9qQ93J3pBF7F-48">
          <mxGeometry relative="1" as="geometry" />
        </mxCell>
        <mxCell id="2Lrg2BdqHgTAn2UWJalT-19" value="Relay Signal" style="rounded=0;whiteSpace=wrap;html=1;" parent="1" vertex="1">
          <mxGeometry x="830" y="495" width="90" height="26" as="geometry" />
        </mxCell>
        <mxCell id="lre7vDux9qQ93J3pBF7F-22" style="edgeStyle=orthogonalEdgeStyle;rounded=0;orthogonalLoop=1;jettySize=auto;html=1;entryX=0;entryY=0.5;entryDx=0;entryDy=0;startArrow=classic;startFill=1;" edge="1" parent="1" source="2Lrg2BdqHgTAn2UWJalT-20" target="lre7vDux9qQ93J3pBF7F-19">
          <mxGeometry relative="1" as="geometry" />
        </mxCell>
        <mxCell id="2Lrg2BdqHgTAn2UWJalT-20" value="Serial" style="whiteSpace=wrap;html=1;aspect=fixed;" parent="1" vertex="1">
          <mxGeometry x="532" y="132" width="56" height="56" as="geometry" />
        </mxCell>
        <mxCell id="2Lrg2BdqHgTAn2UWJalT-21" value="OV Protection" style="whiteSpace=wrap;html=1;aspect=fixed;" parent="1" vertex="1">
          <mxGeometry x="390" y="335" width="56" height="56" as="geometry" />
        </mxCell>
        <mxCell id="lre7vDux9qQ93J3pBF7F-43" style="edgeStyle=orthogonalEdgeStyle;rounded=0;orthogonalLoop=1;jettySize=auto;html=1;entryX=0;entryY=0.5;entryDx=0;entryDy=0;startArrow=none;startFill=0;" edge="1" parent="1" source="2Lrg2BdqHgTAn2UWJalT-24" target="lre7vDux9qQ93J3pBF7F-18">
          <mxGeometry relative="1" as="geometry" />
        </mxCell>
        <mxCell id="2Lrg2BdqHgTAn2UWJalT-24" value="ADC" style="whiteSpace=wrap;html=1;aspect=fixed;" parent="1" vertex="1">
          <mxGeometry x="240" y="119" width="56" height="56" as="geometry" />
        </mxCell>
        <mxCell id="2Lrg2BdqHgTAn2UWJalT-29" style="edgeStyle=orthogonalEdgeStyle;rounded=0;orthogonalLoop=1;jettySize=auto;html=1;entryX=0;entryY=0.25;entryDx=0;entryDy=0;" parent="1" source="2Lrg2BdqHgTAn2UWJalT-26" target="2Lrg2BdqHgTAn2UWJalT-24" edge="1">
          <mxGeometry relative="1" as="geometry" />
        </mxCell>
        <mxCell id="2Lrg2BdqHgTAn2UWJalT-26" value="ADC Aux" style="rounded=0;whiteSpace=wrap;html=1;" parent="1" vertex="1">
          <mxGeometry x="70" y="110" width="90" height="26" as="geometry" />
        </mxCell>
        <mxCell id="2Lrg2BdqHgTAn2UWJalT-28" style="edgeStyle=orthogonalEdgeStyle;rounded=0;orthogonalLoop=1;jettySize=auto;html=1;entryX=0;entryY=0.75;entryDx=0;entryDy=0;" parent="1" source="2Lrg2BdqHgTAn2UWJalT-27" target="2Lrg2BdqHgTAn2UWJalT-24" edge="1">
          <mxGeometry relative="1" as="geometry" />
        </mxCell>
        <mxCell id="2Lrg2BdqHgTAn2UWJalT-27" value="Battery Voltage" style="rounded=0;whiteSpace=wrap;html=1;" parent="1" vertex="1">
          <mxGeometry x="70" y="157" width="90" height="26" as="geometry" />
        </mxCell>
        <mxCell id="2Lrg2BdqHgTAn2UWJalT-31" value="OV Protection" style="whiteSpace=wrap;html=1;aspect=fixed;" parent="1" vertex="1">
          <mxGeometry x="390" y="405.5" width="56" height="56" as="geometry" />
        </mxCell>
        <mxCell id="2Lrg2BdqHgTAn2UWJalT-33" value="OV Protection" style="whiteSpace=wrap;html=1;aspect=fixed;" parent="1" vertex="1">
          <mxGeometry x="390" y="480.5" width="56" height="56" as="geometry" />
        </mxCell>
        <mxCell id="2Lrg2BdqHgTAn2UWJalT-43" style="edgeStyle=orthogonalEdgeStyle;rounded=0;orthogonalLoop=1;jettySize=auto;html=1;entryX=0;entryY=0.5;entryDx=0;entryDy=0;" parent="1" source="2Lrg2BdqHgTAn2UWJalT-39" target="2Lrg2BdqHgTAn2UWJalT-15" edge="1">
          <mxGeometry relative="1" as="geometry" />
        </mxCell>
        <mxCell id="2Lrg2BdqHgTAn2UWJalT-39" value="Driver circuit" style="whiteSpace=wrap;html=1;aspect=fixed;" parent="1" vertex="1">
          <mxGeometry x="670" y="335" width="56" height="56" as="geometry" />
        </mxCell>
        <mxCell id="lre7vDux9qQ93J3pBF7F-55" style="edgeStyle=orthogonalEdgeStyle;rounded=0;orthogonalLoop=1;jettySize=auto;html=1;entryX=0;entryY=0.5;entryDx=0;entryDy=0;startArrow=none;startFill=0;" edge="1" parent="1" source="2Lrg2BdqHgTAn2UWJalT-40" target="2Lrg2BdqHgTAn2UWJalT-17">
          <mxGeometry relative="1" as="geometry" />
        </mxCell>
        <mxCell id="2Lrg2BdqHgTAn2UWJalT-40" value="Driver circuit" style="whiteSpace=wrap;html=1;aspect=fixed;" parent="1" vertex="1">
          <mxGeometry x="670" y="405" width="56" height="56" as="geometry" />
        </mxCell>
        <mxCell id="2Lrg2BdqHgTAn2UWJalT-45" style="edgeStyle=orthogonalEdgeStyle;rounded=0;orthogonalLoop=1;jettySize=auto;html=1;" parent="1" source="2Lrg2BdqHgTAn2UWJalT-41" target="2Lrg2BdqHgTAn2UWJalT-19" edge="1">
          <mxGeometry relative="1" as="geometry" />
        </mxCell>
        <mxCell id="2Lrg2BdqHgTAn2UWJalT-41" value="Driver circuit" style="whiteSpace=wrap;html=1;aspect=fixed;" parent="1" vertex="1">
          <mxGeometry x="670" y="480" width="56" height="56" as="geometry" />
        </mxCell>
        <mxCell id="lre7vDux9qQ93J3pBF7F-54" style="edgeStyle=orthogonalEdgeStyle;rounded=0;orthogonalLoop=1;jettySize=auto;html=1;entryX=0;entryY=0.5;entryDx=0;entryDy=0;startArrow=none;startFill=0;" edge="1" parent="1" source="2Lrg2BdqHgTAn2UWJalT-42" target="2Lrg2BdqHgTAn2UWJalT-18">
          <mxGeometry relative="1" as="geometry" />
        </mxCell>
        <mxCell id="2Lrg2BdqHgTAn2UWJalT-42" value="Driver circuit" style="whiteSpace=wrap;html=1;aspect=fixed;" parent="1" vertex="1">
          <mxGeometry x="670" y="558.5" width="56" height="56" as="geometry" />
        </mxCell>
        <mxCell id="2Lrg2BdqHgTAn2UWJalT-62" value="Pump Out" style="rounded=0;whiteSpace=wrap;html=1;" parent="1" vertex="1">
          <mxGeometry x="980" y="649" width="90" height="26" as="geometry" />
        </mxCell>
        <mxCell id="2Lrg2BdqHgTAn2UWJalT-63" style="edgeStyle=orthogonalEdgeStyle;rounded=0;orthogonalLoop=1;jettySize=auto;html=1;entryX=0;entryY=0.5;entryDx=0;entryDy=0;" parent="1" source="2Lrg2BdqHgTAn2UWJalT-65" target="2Lrg2BdqHgTAn2UWJalT-62" edge="1">
          <mxGeometry relative="1" as="geometry" />
        </mxCell>
        <mxCell id="2Lrg2BdqHgTAn2UWJalT-65" value="Driver circuit" style="whiteSpace=wrap;html=1;aspect=fixed;" parent="1" vertex="1">
          <mxGeometry x="670" y="634" width="56" height="56" as="geometry" />
        </mxCell>
        <mxCell id="lre7vDux9qQ93J3pBF7F-57" style="edgeStyle=orthogonalEdgeStyle;rounded=0;orthogonalLoop=1;jettySize=auto;html=1;entryX=0.5;entryY=1;entryDx=0;entryDy=0;startArrow=none;startFill=0;" edge="1" parent="1" source="lre7vDux9qQ93J3pBF7F-3" target="2Lrg2BdqHgTAn2UWJalT-1">
          <mxGeometry relative="1" as="geometry" />
        </mxCell>
        <mxCell id="lre7vDux9qQ93J3pBF7F-3" value="Power Supply" style="rounded=0;whiteSpace=wrap;html=1;" vertex="1" parent="1">
          <mxGeometry x="500" y="750" width="120" height="46" as="geometry" />
        </mxCell>
        <mxCell id="lre7vDux9qQ93J3pBF7F-11" value="I2C" style="whiteSpace=wrap;html=1;aspect=fixed;" vertex="1" parent="1">
          <mxGeometry x="532" y="59" width="56" height="56" as="geometry" />
        </mxCell>
        <mxCell id="lre7vDux9qQ93J3pBF7F-41" style="edgeStyle=orthogonalEdgeStyle;rounded=0;orthogonalLoop=1;jettySize=auto;html=1;entryX=0;entryY=0.5;entryDx=0;entryDy=0;startArrow=none;startFill=0;" edge="1" parent="1" source="lre7vDux9qQ93J3pBF7F-16" target="lre7vDux9qQ93J3pBF7F-18">
          <mxGeometry relative="1" as="geometry" />
        </mxCell>
        <mxCell id="lre7vDux9qQ93J3pBF7F-16" value="I2C Aux" style="rounded=0;whiteSpace=wrap;html=1;" vertex="1" parent="1">
          <mxGeometry x="230" y="74" width="90" height="26" as="geometry" />
        </mxCell>
        <mxCell id="lre7vDux9qQ93J3pBF7F-42" style="edgeStyle=orthogonalEdgeStyle;rounded=0;orthogonalLoop=1;jettySize=auto;html=1;startArrow=none;startFill=0;" edge="1" parent="1" source="lre7vDux9qQ93J3pBF7F-18" target="lre7vDux9qQ93J3pBF7F-11">
          <mxGeometry relative="1" as="geometry" />
        </mxCell>
        <mxCell id="lre7vDux9qQ93J3pBF7F-18" value="OV Protection" style="whiteSpace=wrap;html=1;aspect=fixed;" vertex="1" parent="1">
          <mxGeometry x="390" y="59" width="56" height="56" as="geometry" />
        </mxCell>
        <mxCell id="lre7vDux9qQ93J3pBF7F-29" style="edgeStyle=orthogonalEdgeStyle;rounded=0;orthogonalLoop=1;jettySize=auto;html=1;entryX=0;entryY=0.5;entryDx=0;entryDy=0;startArrow=none;startFill=0;" edge="1" parent="1" source="lre7vDux9qQ93J3pBF7F-19" target="lre7vDux9qQ93J3pBF7F-28">
          <mxGeometry relative="1" as="geometry" />
        </mxCell>
        <mxCell id="lre7vDux9qQ93J3pBF7F-19" value="OV Protection" style="whiteSpace=wrap;html=1;aspect=fixed;" vertex="1" parent="1">
          <mxGeometry x="670" y="132" width="56" height="56" as="geometry" />
        </mxCell>
        <mxCell id="lre7vDux9qQ93J3pBF7F-33" style="edgeStyle=orthogonalEdgeStyle;rounded=0;orthogonalLoop=1;jettySize=auto;html=1;startArrow=none;startFill=0;" edge="1" parent="1" source="lre7vDux9qQ93J3pBF7F-20" target="2Lrg2BdqHgTAn2UWJalT-3">
          <mxGeometry relative="1" as="geometry" />
        </mxCell>
        <mxCell id="lre7vDux9qQ93J3pBF7F-20" value="OV Protection" style="whiteSpace=wrap;html=1;aspect=fixed;" vertex="1" parent="1">
          <mxGeometry x="390" y="208" width="56" height="56" as="geometry" />
        </mxCell>
        <mxCell id="lre7vDux9qQ93J3pBF7F-28" value="MPTT VE.Direct" style="rounded=0;whiteSpace=wrap;html=1;" vertex="1" parent="1">
          <mxGeometry x="800" y="147" width="90" height="26" as="geometry" />
        </mxCell>
        <mxCell id="lre7vDux9qQ93J3pBF7F-44" value="Fridge Out" style="rounded=0;whiteSpace=wrap;html=1;" vertex="1" parent="1">
          <mxGeometry x="980" y="349.5" width="90" height="26" as="geometry" />
        </mxCell>
        <mxCell id="lre7vDux9qQ93J3pBF7F-46" value="Inverter Source Select Out" style="rounded=0;whiteSpace=wrap;html=1;" vertex="1" parent="1">
          <mxGeometry x="980" y="573.5" width="90" height="26" as="geometry" />
        </mxCell>
        <mxCell id="lre7vDux9qQ93J3pBF7F-48" value="Inverter Enable Out" style="rounded=0;whiteSpace=wrap;html=1;" vertex="1" parent="1">
          <mxGeometry x="980" y="495" width="90" height="26" as="geometry" />
        </mxCell>
        <mxCell id="lre7vDux9qQ93J3pBF7F-52" value="Charger Out" style="rounded=0;whiteSpace=wrap;html=1;" vertex="1" parent="1">
          <mxGeometry x="980" y="420" width="90" height="26" as="geometry" />
        </mxCell>
        <mxCell id="lre7vDux9qQ93J3pBF7F-59" style="edgeStyle=orthogonalEdgeStyle;rounded=0;orthogonalLoop=1;jettySize=auto;html=1;entryX=0;entryY=0.5;entryDx=0;entryDy=0;startArrow=none;startFill=0;" edge="1" parent="1" source="lre7vDux9qQ93J3pBF7F-58" target="lre7vDux9qQ93J3pBF7F-3">
          <mxGeometry relative="1" as="geometry" />
        </mxCell>
        <mxCell id="lre7vDux9qQ93J3pBF7F-58" value="12V IN" style="ellipse;whiteSpace=wrap;html=1;aspect=fixed;" vertex="1" parent="1">
          <mxGeometry x="246" y="744" width="58" height="58" as="geometry" />
        </mxCell>
      </root>
    </mxGraphModel>
  </diagram>
</mxfile>
